<?xml version="1.0" encoding="UTF-8" standalone="no"?>
<!-- Created with Inkscape (http://www.inkscape.org/) -->

<svg
   width="152.64801mm"
   height="152.64801mm"
   viewBox="0 0 152.64801 152.64801"
   version="1.1"
   id="svg5"
   xml:space="preserve"
   inkscape:version="1.2.2 (b0a8486541, 2022-12-01)"
   sodipodi:docname="favicon.svg"
   inkscape:export-filename="icon16.png"
   inkscape:export-xdpi="7.3050485"
   inkscape:export-ydpi="7.3050485"
   xmlns:inkscape="http://www.inkscape.org/namespaces/inkscape"
   xmlns:sodipodi="http://sodipodi.sourceforge.net/DTD/sodipodi-0.dtd"
   xmlns="http://www.w3.org/2000/svg"
   xmlns:svg="http://www.w3.org/2000/svg"><sodipodi:namedview
     id="namedview7"
     pagecolor="#ffffff"
     bordercolor="#000000"
     borderopacity="0.25"
     inkscape:showpageshadow="2"
     inkscape:pageopacity="0.0"
     inkscape:pagecheckerboard="0"
     inkscape:deskcolor="#d1d1d1"
     inkscape:document-units="mm"
     showgrid="false"
     inkscape:zoom="0.91490602"
     inkscape:cx="198.38103"
     inkscape:cy="336.6466"
     inkscape:window-width="2124"
     inkscape:window-height="1236"
     inkscape:window-x="3969"
     inkscape:window-y="51"
     inkscape:window-maximized="0"
     inkscape:current-layer="layer1" /><defs
     id="defs2" /><g
     inkscape:label="Layer 1"
     inkscape:groupmode="layer"
     id="layer1"
     transform="translate(-30.598282,-64.89743)"><circle
       style="fill:#fbeb0a;fill-opacity:1;stroke-width:3.166"
       id="path464"
       cx="106.92229"
       cy="141.22144"
       r="76.324005" /><path
       style="fill:#000000;stroke-width:0.0906699"
       d="m 140.00043,140.60549 c -0.20576,-0.6346 -0.47115,-1.41851 -0.58977,-1.74203 -0.11859,-0.32352 -0.43091,-1.26015 -0.69404,-2.08139 -0.26314,-0.82125 -0.58988,-1.7986 -0.72613,-2.1719 -0.13623,-0.37328 -0.51703,-1.49317 -0.84621,-2.48861 -0.32918,-0.99545 -0.64183,-1.93208 -0.69476,-2.08139 -0.0529,-0.14932 -0.93062,-2.77241 -1.95041,-5.82909 -1.01978,-3.05669 -1.90709,-5.59107 -1.9718,-5.63196 -0.13638,-0.0862 -0.48811,-0.097 -0.76302,-0.0235 -0.17117,0.0457 -0.19698,0.13795 -0.24668,0.88109 -0.14739,2.20411 -1.31624,7.2702 -2.13477,9.2527 -0.10125,0.2452 -0.29295,0.73087 -0.42601,1.07928 -0.13308,0.34841 -0.30999,0.79032 -0.39314,0.98202 -0.27222,0.62761 -1.57068,3.17751 -1.68882,3.31651 -0.0635,0.0747 -0.13885,0.2021 -0.16755,0.2832 -0.18029,0.50951 -2.07543,2.90845 -3.01875,3.82126 -1.2878,1.24616 -3.35539,2.68463 -3.69612,2.5715 -0.13166,-0.0437 -0.74026,-1.17327 -1.98792,-3.68961 -0.55526,-1.11989 -1.19611,-2.40265 -1.42409,-2.8506 -0.4607,-0.9052 -1.63838,-3.4694 -2.26517,-4.932 -2.41248,-5.62966 -4.21187,-11.11104 -4.9759,-15.15797 -0.60618,-3.21077 -0.64126,-3.43248 -0.77316,-4.88675 -0.0542,-0.59726 -0.13846,-1.51352 -0.18729,-2.03613 -0.16833,-1.80106 -0.07,-5.5988 0.1933,-7.465864 0.1393,-0.987797 0.30552,-1.939913 0.49163,-2.816109 l 0.15605,-0.734712 0.60267,0.215583 c 3.06605,1.096745 5.4937,3.507503 7.36828,7.317022 0.75554,1.53539 1.07427,2.32509 1.60713,3.9818 0.22412,0.69681 0.48229,1.4909 0.57369,1.76466 0.2007,0.60106 0.89746,3.30491 1.01443,3.93654 0.046,0.24887 0.11896,0.53393 0.16197,0.63348 0.0729,0.1687 0.24532,0.94546 0.30134,1.35742 0.0198,0.14624 0.10295,0.18552 0.4326,0.20457 0.22438,0.013 0.45967,-0.0102 0.52285,-0.0514 0.0632,-0.0412 0.33907,-0.96565 0.61309,-2.05426 0.55599,-2.20873 1.17056,-4.28283 1.50144,-5.06704 0.0419,-0.0995 0.17701,-0.48643 0.30002,-0.85971 0.22324,-0.67745 0.46808,-1.31233 1.09931,-2.8506 0.41425,-1.00954 1.58841,-3.26062 2.06684,-3.96252 1.97474,-2.897221 4.12594,-4.010473 6.12478,-3.169597 1.22277,0.5144 2.27568,1.358126 3.32837,2.667127 0.87861,1.09254 2.08777,3.37224 2.89622,5.46043 0.0964,0.24886 0.20931,0.53392 0.25101,0.63347 0.26064,0.6221 0.46352,1.19918 0.46352,1.31845 0,0.0761 0.0371,0.17721 0.0824,0.2245 0.0454,0.0473 0.12391,0.22849 0.17465,0.4027 0.0507,0.17421 0.20132,0.60179 0.33464,0.95019 0.1333,0.34842 0.2775,0.73528 0.32044,0.85971 0.043,0.12444 0.1852,0.51131 0.31614,0.85972 0.13094,0.3484 0.3207,0.86762 0.42169,1.15381 0.10103,0.28619 0.2124,0.52034 0.24761,0.52034 0.0574,0 0.35558,-0.97545 0.55326,-1.8099 0.42485,-1.79336 1.92175,-6.6715 2.72138,-8.86854 1.57329,-4.322703 3.36758,-7.492342 5.64357,-9.969446 1.24985,-1.36029 3.44268,-2.829753 4.8768,-3.268051 0.37718,-0.115269 0.65815,-0.251564 0.65864,-0.319488 9e-4,-0.06515 0.0384,-0.09533 0.0844,-0.06707 0.21022,0.129423 0.69978,2.865813 0.97222,5.434255 0.21683,2.044079 0.21627,6.83215 -0.001,9.00426 -0.30443,3.0431 -0.72591,5.80911 -1.23414,8.09933 -0.2665,1.20094 -0.98076,4.10886 -1.14475,4.66051 -0.0666,0.22398 -0.20248,0.69229 -0.30198,1.04069 -0.32526,1.13882 -1.26795,4.13715 -1.67866,5.33922 -0.49612,1.45204 -2.36837,6.46787 -2.60098,6.96814 -0.0463,0.0995 -0.16226,0.38461 -0.25771,0.63347 -0.28372,0.73973 -0.82784,2.05197 -1.0319,2.48861 -1.09111,2.33486 -2.06873,4.16523 -2.57034,4.81239 -0.0999,0.12893 -0.24301,0.32761 -0.31796,0.44153 -0.44275,0.67297 -1.48933,1.80512 -2.33757,2.52869 -0.42159,0.35962 -1.49373,1.04085 -2.2501,1.42967 -0.40429,0.20783 -1.42914,0.56122 -1.6276,0.56122 -0.0838,0 -0.25709,-0.39834 -0.50204,-1.15382 z"
       id="path2693" /><path
       style="fill:#000000;stroke-width:0.0906699"
       d="m 72.485083,143.61219 c -2.965831,-0.33678 -4.391918,-0.63957 -6.858786,-1.45629 -1.866894,-0.61808 -2.883635,-1.0576 -4.394039,-1.89948 -1.020126,-0.5686 -2.652048,-1.62818 -3.191506,-2.07219 -2.698122,-2.22075 -3.497018,-3.07927 -4.966891,-5.3376 -0.723747,-1.11198 -1.863346,-3.24258 -2.39276,-4.34716 -1.058079,-2.20761 -4.921426,-7.13303 0.550658,-6.68788 2.317827,0.18855 1.720176,0.14412 3.579361,0.25227 2.545259,-0.089 4.526718,1.03192 7.090543,3.08791 1.37613,1.10355 1.691761,1.36183 2.225698,1.82129 0.299788,0.25797 0.79035,0.64852 1.090138,0.86789 0.299788,0.21935 0.565509,0.4221 0.590491,0.45056 0.02498,0.0285 0.270264,0.19748 0.54507,0.37563 2.32818,1.50934 4.840016,2.35689 7.858079,2.65151 0.680681,0.0664 2.669635,-0.0883 3.633793,-0.28277 2.574887,-0.51928 4.565623,-1.79207 5.370797,-3.43387 0.341634,-0.69662 0.352095,-0.74635 0.341522,-1.62358 -0.03018,-2.50444 -1.36623,-4.21281 -4.412613,-5.64232 -1.560619,-0.73233 -2.944958,-1.14307 -6.114482,-1.81421 -2.308794,-0.4889 -2.6221,-0.55981 -4.04428,-0.91534 -3.771535,-0.94288 -6.297831,-2.24718 -8.449261,-4.36229 -2.447188,-2.40587 -3.827082,-5.48889 -3.969281,-8.86833 -0.09807,-2.33065 0.294698,-4.13591 1.374003,-6.315311 0.672146,-1.357237 1.463557,-2.449306 2.616888,-3.611056 2.177969,-2.193874 4.206458,-3.465852 7.157507,-4.48816 4.311254,-1.493514 9.018968,-1.710458 13.445038,-0.619583 1.772938,0.436968 2.886676,0.831685 4.418982,1.566117 3.141654,1.50579 3.854654,2.299804 5.398477,4.86029 0.689948,1.144299 1.719733,2.677868 2.718763,5.487523 0.34453,0.96896 1.67558,1.90273 -0.51849,1.96092 -0.859625,0.0228 -1.897481,0.25612 -3.289216,0.25057 -1.407172,-0.006 -1.945619,0.35676 -3.8869,-0.52808 -5.664379,-2.58185 -7.021679,-2.971068 -9.97435,-2.86025 -1.613708,0.0605 -2.838376,0.32639 -3.998366,0.86789 -2.431435,1.13502 -3.35059,2.56374 -2.542114,3.95141 0.403549,0.69267 1.455711,1.50425 2.631318,2.02968 0.795456,0.35552 2.594732,0.92661 3.954585,1.25519 4.563275,1.10262 5.359324,1.33471 7.494699,2.1852 1.103304,0.43944 3.11072,1.4648 4.202192,2.14642 1.983542,1.23874 4.184328,3.20825 5.362572,4.79905 0.46537,0.62833 1.47289,2.27864 1.47289,2.41261 0,0.0222 0.11869,0.29786 0.26377,0.61241 1.55878,3.37976 1.74369,7.56107 0.49952,11.29561 -0.29175,0.87571 -1.20807,2.85974 -1.43737,3.1122 -0.054,0.0594 -0.13899,0.17358 -0.18895,0.25371 -0.79961,1.2823 -2.295334,2.95913 -3.361261,3.76825 -0.299788,0.22757 -0.565509,0.4374 -0.590491,0.4663 -0.135778,0.15709 -1.350766,0.95256 -2.186072,1.43124 -2.735485,1.56765 -5.488485,2.42093 -9.257666,2.86939 -1.022503,0.12165 -5.007217,0.1738 -5.862206,0.0767 z"
       id="path2691"
       sodipodi:nodetypes="ssssssscsssssssssssssssssssssssssssssssssssssssssss" /><path
       style="fill:#000000;stroke-width:0.0890146"
       d="m 84.9541,207.01938 c -1.608397,-0.19075 -3.158437,-0.53794 -4.852025,-1.08677 -1.570089,-0.5088 -1.812762,-0.60821 -4.03548,-1.65306 -1.11097,-0.52224 -3.302329,-1.79652 -3.940114,-2.29118 -0.120392,-0.0934 -0.593206,-0.44019 -1.050696,-0.77069 -0.457492,-0.33051 -0.851503,-0.62582 -0.875581,-0.65626 -0.02408,-0.0304 -0.475573,-0.42017 -1.00332,-0.8661 -3.416257,-2.88658 -6.171381,-6.43 -8.264771,-10.62951 -1.604964,-3.21967 -2.513174,-6.05516 -3.029011,-9.45675 -0.323944,-2.13619 -0.409588,-2.62585 -0.468135,-2.67656 -0.03411,-0.0296 -0.57424,-0.24809 -1.20028,-0.48566 -4.728131,-1.79436 -8.602447,-3.67365 -10.803602,-5.24047 -0.926213,-0.6593 -1.951931,-1.88735 -2.429893,-2.90922 -0.439718,-0.94011 -0.557038,-1.4816 -0.556572,-2.56885 7.88e-4,-1.86358 0.437059,-3.22108 1.369781,-4.26233 0.631032,-0.70445 1.31102,-1.05557 2.287493,-1.18116 1.414639,-0.18194 2.758882,0.14705 5.010644,1.22633 4.559219,2.18525 6.963328,3.21145 7.523535,3.21145 0.208503,0 0.251646,-0.0769 0.571135,-1.01808 0.388494,-1.14444 1.56443,-3.61003 2.147253,-4.50214 1.991435,-3.04823 4.318206,-5.19421 7.269697,-6.70483 1.836375,-0.93987 3.826677,-1.57704 6.172846,-1.97612 4.599797,-0.78243 9.171762,-0.19817 11.645226,1.48817 1.542377,1.05154 2.138237,2.34702 2.033222,4.42046 -0.08187,1.61632 -0.528545,2.80036 -1.480038,3.92325 -0.685615,0.80911 -1.12941,1.15825 -2.132408,1.67759 -1.431257,0.74109 -2.818731,1.15609 -5.07519,1.51799 -3.467184,0.5561 -6.377046,2.00423 -7.729787,3.84685 -0.716526,0.976 -0.945265,1.4014 -0.802554,1.49256 0.222711,0.14226 5.901956,1.52973 8.095449,1.97776 4.968189,1.01478 10.911985,1.82886 16.547579,2.26641 3.179681,0.24685 6.098807,0.3909 6.179117,0.30489 0.0372,-0.0399 0.26308,-0.52042 0.50192,-1.06792 0.23883,-0.54749 0.71472,-1.63565 1.05753,-2.41813 0.34282,-0.78247 0.62329,-1.44404 0.62329,-1.47014 0,-0.0261 0.44428,-0.97409 0.98728,-2.10663 2.03042,-4.23492 3.84655,-6.92229 6.62645,-9.8053 3.39065,-3.51639 6.89294,-5.63348 11.86795,-7.174 3.85691,-1.1943 8.16081,-1.50932 12.34569,-0.90363 3.09798,0.44838 6.20169,1.61096 8.82636,3.30616 2.78996,1.80194 5.45616,4.63493 7.40765,7.87106 0.54931,0.9109 1.74283,3.3205 2.24547,4.53342 0.13924,0.33596 0.30187,0.61084 0.36143,0.61084 0.0596,0 0.49405,-0.14498 0.96554,-0.32218 2.29428,-0.86225 3.17395,-1.15612 5.67296,-1.89515 2.05033,-0.60636 3.37539,-0.85812 4.56679,-0.86772 1.17464,-0.009 1.68558,0.17429 2.23627,0.80429 0.46234,0.52893 0.55256,0.89033 0.54681,2.19027 -0.0109,2.43443 -0.81373,4.72479 -2.3522,6.70957 -2.0871,2.69255 -5.09615,4.75486 -8.95027,6.13425 l -1.32587,0.47452 -0.0612,0.60307 c -0.32852,3.2375 -1.61952,7.58784 -3.17334,10.69331 -1.63983,3.27738 -3.27823,5.5689 -5.88791,8.23507 -2.24632,2.29495 -5.32714,4.50633 -8.2103,5.89328 -0.51806,0.24921 -1.00619,0.48851 -1.08474,0.53179 -0.43641,0.24044 -2.26116,0.96569 -3.50524,1.39317 -2.09431,0.7196 -2.60627,0.82217 -4.10083,0.82152 -1.24616,-9e-4 -1.28224,-0.006 -1.95594,-0.30491 -1.21076,-0.53691 -1.96325,-1.53383 -2.39773,-3.17662 -0.23014,-0.87015 -0.20659,-2.96108 0.0439,-3.90717 0.58317,-2.2019 1.8528,-4.10471 3.52659,-5.28538 0.35847,-0.25286 1.18368,-0.71705 1.83381,-1.03153 5.04221,-2.43908 7.56135,-4.19045 9.50532,-6.60837 0.74433,-0.92581 1.07757,-1.44656 1.82602,-2.85355 0.52672,-0.99015 0.73947,-1.53267 0.641,-1.63445 -0.0219,-0.0226 -0.52798,0.0806 -1.12469,0.22951 -2.33275,0.58186 -5.66193,1.22509 -9.84074,1.90131 -2.13973,0.34626 -5.20246,0.71805 -10.06918,1.2223 -2.13448,0.22116 -6.00337,0.50488 -7.82126,0.57356 l -1.69217,0.0639 -0.24571,0.63346 c -1.05852,2.72914 -3.0315,6.61095 -4.55353,8.95905 -1.91611,2.95605 -3.09877,4.4172 -5.03767,6.22397 -2.46538,2.29733 -4.850452,3.76594 -7.661396,4.71749 -2.582874,0.87433 -4.838678,1.23526 -7.617554,1.21882 -0.890905,-0.006 -2.092479,-0.0656 -2.670166,-0.13417 z m 3.283072,-14.3422 c 2.739208,-0.55884 4.840161,-1.82035 6.743851,-4.04929 0.522439,-0.61171 2.187072,-3.10093 2.187072,-3.27047 0,-0.0404 -0.325058,-0.1011 -0.722355,-0.13473 -5.6603,-0.47933 -12.226654,-1.30241 -15.607228,-1.95634 -4.651634,-0.8998 -5.832596,-1.15826 -8.479615,-1.85575 -0.859388,-0.22645 -1.585504,-0.38797 -1.613589,-0.35896 -0.156931,0.1622 1.084443,3.06321 1.863799,4.35558 1.228892,2.03782 3.045155,3.82497 5.164871,5.0821 1.894617,1.12362 4.852581,2.07398 7.100106,2.2812 0.956151,0.0881 2.71244,0.0394 3.363088,-0.0933 z m 31.039408,-19.76691 c 4.80723,-0.33376 11.366,-1.22267 16.03163,-2.17278 1.57503,-0.32074 7.22784,-1.65419 7.29152,-1.71999 0.0597,-0.0618 -0.50571,-1.1227 -0.9388,-1.76105 -0.57617,-0.84924 -1.65362,-1.90486 -2.62981,-2.57653 -1.21749,-0.83772 -2.30541,-1.30577 -4.03786,-1.73719 -0.78257,-0.19488 -1.19294,-0.23582 -2.75808,-0.27519 -1.59341,-0.0401 -1.97891,-0.0214 -2.88942,0.13997 -1.83102,0.32451 -2.9905,0.71898 -4.50864,1.53395 -2.22817,1.19611 -3.88532,2.74499 -5.34603,4.9967 -0.56944,0.8778 -1.66946,3.03102 -1.79633,3.51613 -0.0542,0.20739 -0.044,0.21193 0.369,0.16203 0.23365,-0.0282 0.77941,-0.076 1.21282,-0.10607 z"
       id="path302" /></g></svg>
